<svg t="1722504598638" class="icon" viewBox="0 0 1024 1024" version="1.1" xmlns="http://www.w3.org/2000/svg" p-id="4183"
	width="16" height="16">
	<path
		d="M255.424 52.8a34.112 34.112 0 0 0-10.048 24.896c0 11.136 4.608 21.952 12.608 29.824L689.28 522.688 258.048 937.856a41.6 41.6 0 0 0-12.736 29.76c0 9.856 3.584 18.688 10.176 25.024 14.848 14.272 40.32 13.184 56.64-2.56l453.568-436.8a41.344 41.344 0 0 0 12.992-29.056V520.32a41.856 41.856 0 0 0-12.992-28.288L312.064 55.168C295.744 39.488 270.272 38.4 255.424 52.8"
		fill="#61EA53" p-id="4184"></path>
</svg>
